<svg id="icon_Lavori_edili" data-name="icon Lavori edili" xmlns="http://www.w3.org/2000/svg" width="193.588" height="193.587" viewBox="0 0 193.588 193.587">
  <path id="Tracciato_185" data-name="Tracciato 185" d="M136,272h6.453v6.453H136Zm0,0" transform="translate(-81.15 -162.301)" fill="#90949d"/>
  <path id="Tracciato_186" data-name="Tracciato 186" d="M168,272h6.453v6.453H168Zm0,0" transform="translate(-100.245 -162.301)" fill="#90949d"/>
  <path id="Tracciato_187" data-name="Tracciato 187" d="M200,272h6.453v6.453H200Zm0,0" transform="translate(-119.339 -162.301)" fill="#90949d"/>
  <path id="Tracciato_188" data-name="Tracciato 188" d="M136,304h6.453v6.453H136Zm0,0" transform="translate(-81.15 -181.395)" fill="#90949d"/>
  <path id="Tracciato_189" data-name="Tracciato 189" d="M168,304h6.453v6.453H168Zm0,0" transform="translate(-100.245 -181.395)" fill="#90949d"/>
  <path id="Tracciato_190" data-name="Tracciato 190" d="M200,304h6.453v6.453H200Zm0,0" transform="translate(-119.339 -181.395)" fill="#90949d"/>
  <path id="Tracciato_191" data-name="Tracciato 191" d="M232,304h6.453v6.453H232Zm0,0" transform="translate(-138.433 -181.395)" fill="#90949d"/>
  <path id="Tracciato_192" data-name="Tracciato 192" d="M264,304h6.453v6.453H264Zm0,0" transform="translate(-157.527 -181.395)" fill="#90949d"/>
  <path id="Tracciato_193" data-name="Tracciato 193" d="M136,336h6.453v6.453H136Zm0,0" transform="translate(-81.15 -200.489)" fill="#90949d"/>
  <path id="Tracciato_194" data-name="Tracciato 194" d="M168,336h6.453v6.453H168Zm0,0" transform="translate(-100.245 -200.489)" fill="#90949d"/>
  <path id="Tracciato_195" data-name="Tracciato 195" d="M200,336h6.453v6.453H200Zm0,0" transform="translate(-119.339 -200.489)" fill="#90949d"/>
  <path id="Tracciato_196" data-name="Tracciato 196" d="M232,336h6.453v6.453H232Zm0,0" transform="translate(-138.433 -200.489)" fill="#90949d"/>
  <path id="Tracciato_197" data-name="Tracciato 197" d="M264,336h6.453v6.453H264Zm0,0" transform="translate(-157.527 -200.489)" fill="#90949d"/>
  <path id="Tracciato_198" data-name="Tracciato 198" d="M136,368h6.453v6.453H136Zm0,0" transform="translate(-81.15 -219.584)" fill="#90949d"/>
  <path id="Tracciato_199" data-name="Tracciato 199" d="M168,368h6.453v6.453H168Zm0,0" transform="translate(-100.245 -219.584)" fill="#90949d"/>
  <path id="Tracciato_200" data-name="Tracciato 200" d="M200,368h6.453v6.453H200Zm0,0" transform="translate(-119.339 -219.584)" fill="#90949d"/>
  <path id="Tracciato_201" data-name="Tracciato 201" d="M232,368h6.453v6.453H232Zm0,0" transform="translate(-138.433 -219.584)" fill="#90949d"/>
  <path id="Tracciato_202" data-name="Tracciato 202" d="M264,368h6.453v6.453H264Zm0,0" transform="translate(-157.527 -219.584)" fill="#90949d"/>
  <path id="Tracciato_203" data-name="Tracciato 203" d="M136,400h6.453v6.453H136Zm0,0" transform="translate(-81.15 -238.678)" fill="#90949d"/>
  <path id="Tracciato_204" data-name="Tracciato 204" d="M168,400h6.453v6.453H168Zm0,0" transform="translate(-100.245 -238.678)" fill="#90949d"/>
  <path id="Tracciato_205" data-name="Tracciato 205" d="M200,400h6.453v6.453H200Zm0,0" transform="translate(-119.339 -238.678)" fill="#90949d"/>
  <path id="Tracciato_206" data-name="Tracciato 206" d="M232,400h6.453v6.453H232Zm0,0" transform="translate(-138.433 -238.678)" fill="#90949d"/>
  <path id="Tracciato_207" data-name="Tracciato 207" d="M264,400h6.453v6.453H264Zm0,0" transform="translate(-157.527 -238.678)" fill="#90949d"/>
  <path id="Tracciato_208" data-name="Tracciato 208" d="M136,432h6.453v6.453H136Zm0,0" transform="translate(-81.15 -257.772)" fill="#90949d"/>
  <path id="Tracciato_209" data-name="Tracciato 209" d="M168,432h6.453v6.453H168Zm0,0" transform="translate(-100.245 -257.772)" fill="#90949d"/>
  <path id="Tracciato_210" data-name="Tracciato 210" d="M200,432h6.453v6.453H200Zm0,0" transform="translate(-119.339 -257.772)" fill="#90949d"/>
  <path id="Tracciato_211" data-name="Tracciato 211" d="M232,432h6.453v6.453H232Zm0,0" transform="translate(-138.433 -257.772)" fill="#90949d"/>
  <path id="Tracciato_212" data-name="Tracciato 212" d="M264,432h6.453v6.453H264Zm0,0" transform="translate(-157.527 -257.772)" fill="#90949d"/>
  <path id="Tracciato_213" data-name="Tracciato 213" d="M190.36,9.679H167.775V3.226A3.227,3.227,0,0,0,164.549,0H132.284a3.227,3.227,0,0,0-3.226,3.226V9.679H3.226A3.227,3.227,0,0,0,0,12.906V25.812a3.226,3.226,0,0,0,3.226,3.226h9.679v61.3a3.226,3.226,0,0,0,3.226,3.226,3.226,3.226,0,1,1-3.226,3.226H6.453a9.606,9.606,0,0,0,2.469,6.393L.646,114.217l.041.032a3.16,3.16,0,0,0-.687,1.9v12.906a3.224,3.224,0,0,0,.945,2.281L7.4,137.792a3.227,3.227,0,0,0,2.281.945H22.585a3.227,3.227,0,0,0,2.281-.945l6.453-6.453a3.224,3.224,0,0,0,.945-2.281V116.152a3.16,3.16,0,0,0-.687-1.9l.041-.032-8.276-11.031a9.621,9.621,0,0,0-3.984-15.519V29.038h109.7v3.226a3.226,3.226,0,0,0,3.226,3.226h6.453V187.134H125.831V58.076h-6.453V70.982H100.02V64.529H93.567v6.453H74.208V67.755H67.755v3.226H48.4V61.3H90.34V54.85H48.4V41.944H41.944v145.19H36.827L21.64,171.948a3.225,3.225,0,0,0-4.562,0L1.89,187.134H0v6.453H193.587v-6.453h-2.516a9.592,9.592,0,0,0-4.647-15.757,9.679,9.679,0,1,0-17.938,0,9.592,9.592,0,0,0-4.647,15.757H158.1V35.491h6.453a3.226,3.226,0,0,0,3.226-3.226V29.038H190.36a3.226,3.226,0,0,0,3.226-3.226V12.906a3.227,3.227,0,0,0-3.226-3.226ZM17.745,106.473l4.84,6.453H9.679l4.84-6.453Zm8.066,21.251-4.562,4.561H11.015l-4.562-4.561v-8.345H25.811ZM176.487,16.132l-8.712,5.809V16.132ZM135.511,6.453h12.906V19.359H135.511ZM48.4,16.778l8.712,5.807H39.685ZM29.038,21.941l-8.712-5.809H37.75Zm30.005-5.809H76.467l-8.712,5.809Zm28.071.646,8.712,5.807H78.4Zm10.647-.646h17.424l-8.712,5.809Zm-91.308,0H8.712l9.679,6.453H6.453Zm110.666,6.453,9.679-6.453h2.259v6.453Zm34.524,153.9-5.807-8.712,5.807-8.71Zm0-77.435-5.807-8.712,5.807-8.71Zm-6.453,1.936L151,109.7l-5.807,8.712Zm0-21.295V62.272L151,70.982Zm0,60.012,5.807,8.71-5.807,8.712Zm6.453-1.955-5.807-8.693,5.807-8.71Zm-5.807-86.128,5.807-8.71V60.335Zm-.646-10.647V35.491h3.652ZM119.378,77.435V109.7H100.02V77.435Zm-25.812,0v27.748l-7.42-7.334a3.235,3.235,0,0,0-2.259-.933H74.208V77.435Zm-25.812,0v5.378H48.4V77.435Zm-48.4,101.356,8.343,8.343H11.015ZM48.4,187.134V89.267H67.755v10.889a3.226,3.226,0,0,0,3.226,3.226H82.561l11.973,11.839a3.226,3.226,0,0,0,2.259.931h22.585v70.982Zm96.793-8.71,5.807,8.71H145.19Zm38.717,5.484a3.226,3.226,0,1,1,3.226-3.226A3.226,3.226,0,0,1,183.907,183.908Zm-6.453-19.359a3.226,3.226,0,1,1-3.226,3.226A3.227,3.227,0,0,1,177.454,164.549ZM171,177.455a3.226,3.226,0,1,1-3.226,3.226A3.227,3.227,0,0,1,171,177.455ZM161.322,29.039H135.511V25.812h16.132a3.226,3.226,0,0,0,3.226-3.226V6.453h6.453Zm17.1-6.453,8.712-5.807v5.807Zm0,0" transform="translate(0)" fill="#354056"/>
</svg>
