<svg id="icon_lavori_stradali" data-name="icon lavori stradali" xmlns="http://www.w3.org/2000/svg" width="183.686" height="193.139" viewBox="0 0 183.686 193.139">
  <path id="Tracciato_214" data-name="Tracciato 214" d="M164.112,76.907C80.673,48.393,136.934,14.234,165.251.763A.4.4,0,0,0,165.078,0h-20.2A21.082,21.082,0,0,0,135.6,2.167C103.526,17.847,38.845,56,91.1,87.99c59.923,36.689-4.319,84.6-37.939,105.15H184.992C202.622,167.975,239.151,102.551,164.112,76.907Z" transform="translate(-37.833 0)" fill="#c2c2c2"/>
  <path id="Tracciato_215" data-name="Tracciato 215" d="M53.16,193.139H82.122c34.542-23.81,87.408-70.944,31.26-107.58-46.866-30.579.33-66.434,33.7-85.559h-2.209A21.082,21.082,0,0,0,135.6,2.167C103.526,17.847,38.845,56,91.1,87.99c59.923,36.689-4.319,84.6-37.939,105.15Z" transform="translate(-37.833 0)" fill="none"/>
  <g id="Raggruppa_15" data-name="Raggruppa 15" transform="translate(74.514 19.843)">
    <path id="Tracciato_216" data-name="Tracciato 216" d="M212.983,59.67a2.917,2.917,0,0,1-1.6-5.356c1.29-.846,2.1-1.309,2.135-1.329a2.917,2.917,0,0,1,2.889,5.068c-.019.011-.714.41-1.825,1.139a2.9,2.9,0,0,1-1.6.478Z" transform="translate(-210.064 -52.602)" fill="#fff"/>
  </g>
  <g id="Raggruppa_16" data-name="Raggruppa 16" transform="translate(53.938 31.282)">
    <path id="Tracciato_217" data-name="Tracciato 217" d="M286.606,426.439a2.917,2.917,0,0,1-2.137-4.9c1.062-1.144,2.1-2.308,3.078-3.46a2.917,2.917,0,0,1,4.441,3.783c-1.034,1.214-2.125,2.441-3.243,3.645A2.909,2.909,0,0,1,286.606,426.439Z" transform="translate(-235.34 -291.012)" fill="#fff"/>
    <path id="Tracciato_218" data-name="Tracciato 218" d="M319.379,381.816a2.918,2.918,0,0,1-2.526-4.371c.771-1.343,1.483-2.691,2.114-4.01a2.917,2.917,0,0,1,5.262,2.518c-.694,1.45-1.474,2.931-2.319,4.4A2.916,2.916,0,0,1,319.379,381.816Z" transform="translate(-255.752 -262.815)" fill="#fff"/>
    <path id="Tracciato_219" data-name="Tracciato 219" d="M336.773,329.646q-.116,0-.234-.009a2.917,2.917,0,0,1-2.677-3.138c.063-.787.094-1.576.094-2.348,0-.656-.023-1.316-.068-1.963a2.917,2.917,0,1,1,5.819-.408c.055.782.083,1.58.082,2.372,0,.924-.038,1.87-.112,2.808A2.916,2.916,0,0,1,336.773,329.646Z" transform="translate(-266.58 -229.988)" fill="#fff"/>
    <path id="Tracciato_220" data-name="Tracciato 220" d="M318.535,279.449a2.915,2.915,0,0,1-2.436-1.308,35.255,35.255,0,0,0-2.647-3.493,2.917,2.917,0,1,1,4.427-3.8,41.161,41.161,0,0,1,3.085,4.073,2.917,2.917,0,0,1-2.43,4.526Z" transform="translate(-253.438 -199.326)" fill="#fff"/>
    <path id="Tracciato_221" data-name="Tracciato 221" d="M277.039,244.579a2.9,2.9,0,0,1-1.578-.466c-1.242-.8-2.562-1.6-3.922-2.366a2.917,2.917,0,1,1,2.871-5.078c1.458.824,2.875,1.679,4.212,2.541a2.917,2.917,0,0,1-1.583,5.369Z" transform="translate(-226.85 -178.438)" fill="#fff"/>
    <path id="Tracciato_222" data-name="Tracciato 222" d="M228.415,219.871a2.9,2.9,0,0,1-1.316-.316c-1.478-.749-2.923-1.516-4.295-2.279a2.917,2.917,0,0,1,2.836-5.1c1.307.727,2.685,1.458,4.1,2.174a2.917,2.917,0,0,1-1.321,5.519Z" transform="translate(-196.488 -163.191)" fill="#fff"/>
    <path id="Tracciato_223" data-name="Tracciato 223" d="M183.8,188.8a2.906,2.906,0,0,1-1.891-.7c-1.321-1.126-2.556-2.28-3.672-3.432a2.917,2.917,0,0,1,4.19-4.059c.987,1.019,2.086,2.045,3.266,3.051A2.916,2.916,0,0,1,183.8,188.8Z" transform="translate(-169.154 -143.212)" fill="#fff"/>
    <path id="Tracciato_224" data-name="Tracciato 224" d="M158.869,141.935a2.918,2.918,0,0,1-2.851-2.315,23.2,23.2,0,0,1-.5-4.777c0-.206,0-.415.008-.623a2.917,2.917,0,1,1,5.831.16c0,.153-.006.306-.006.46a17.36,17.36,0,0,0,.375,3.576,2.921,2.921,0,0,1-2.857,3.52Z" transform="translate(-155.518 -113.104)" fill="#fff"/>
    <path id="Tracciato_225" data-name="Tracciato 225" d="M173.061,92.446a2.917,2.917,0,0,1-2.36-4.627,47.286,47.286,0,0,1,3.193-3.93,2.917,2.917,0,1,1,4.331,3.909,41.548,41.548,0,0,0-2.8,3.442A2.913,2.913,0,0,1,173.061,92.446Z" transform="translate(-164.628 -82.926)" fill="#fff"/>
  </g>
  <g id="Raggruppa_17" data-name="Raggruppa 17" transform="translate(88.926 171.809)">
    <path id="Tracciato_226" data-name="Tracciato 226" d="M251.187,462.747a2.917,2.917,0,0,1-1.765-5.241c.005,0,.647-.492,1.724-1.383a2.917,2.917,0,0,1,3.718,4.5c-1.182.978-1.886,1.513-1.915,1.535A2.9,2.9,0,0,1,251.187,462.747Z" transform="translate(-248.268 -455.454)" fill="#fff"/>
  </g>
  <path id="Tracciato_227" data-name="Tracciato 227" d="M278.406,69.914c-79.515-24.575-33.637-52.559-4.2-66.973A1.565,1.565,0,0,0,273.642,0h-1.094c-27.694,12.9-87.824,47.838-2.761,76.907,75.039,25.644,38.51,91.068,20.88,116.232h14.941a10.055,10.055,0,0,0,8.944-5.907C331.492,152.355,347.3,91.206,278.406,69.914Z" transform="translate(-145.452 0)" fill="#354056"/>
  <g id="Raggruppa_19" data-name="Raggruppa 19" transform="translate(0 18.502)">
    <g id="Raggruppa_18" data-name="Raggruppa 18">
      <path id="Tracciato_228" data-name="Tracciato 228" d="M66.573,118.535C27.941,94.881,52.449,67.862,81.22,49.047c-32.187,18.05-69.1,47.716-25.831,74.209,50.681,31.031-2.483,70.087-41.214,93.83-2.877,1.764-1.738,6.6,1.554,6.6H28.634C62.255,203.134,126.5,155.224,66.573,118.535Z" transform="translate(-12.53 -49.047)" fill="#354056"/>
    </g>
  </g>
</svg>
