<svg width="209" height="81" viewBox="0 0 209 81" fill="none" xmlns="http://www.w3.org/2000/svg">
<rect width="209" height="81" fill="white"/>
<g clip-path="url(#clip0_101_11)">
<mask id="mask0_101_11" style="mask-type:luminance" maskUnits="userSpaceOnUse" x="0" y="0" width="206" height="81">
<path d="M206 0H0V81H206V0Z" fill="white"/>
</mask>
<g mask="url(#mask0_101_11)">
<path d="M93.1602 57V81H88.7773L78.3359 65.8945H78.1602V81H73.0859V57H77.5391L87.8984 72.0937H88.1094V57H93.1602ZM113.267 64.7578C113.103 64.1875 112.872 63.6836 112.575 63.2461C112.278 62.8008 111.915 62.4258 111.485 62.1211C111.063 61.8086 110.579 61.5703 110.032 61.4062C109.493 61.2422 108.896 61.1602 108.239 61.1602C107.013 61.1602 105.935 61.4648 105.005 62.0742C104.083 62.6836 103.364 63.5703 102.849 64.7344C102.333 65.8906 102.075 67.3047 102.075 68.9766C102.075 70.6484 102.329 72.0703 102.837 73.2422C103.345 74.4141 104.063 75.3086 104.993 75.9258C105.923 76.5352 107.021 76.8398 108.286 76.8398C109.435 76.8398 110.415 76.6367 111.228 76.2305C112.048 75.8164 112.673 75.2344 113.103 74.4844C113.54 73.7344 113.759 72.8477 113.759 71.8242L114.79 71.9766H108.603V68.1562H118.646V71.1797C118.646 73.2891 118.2 75.1016 117.31 76.6172C116.419 78.125 115.192 79.2891 113.63 80.1094C112.067 80.9219 110.278 81.3281 108.263 81.3281C106.013 81.3281 104.036 80.832 102.333 79.8398C100.63 78.8398 99.3018 77.4219 98.3486 75.5859C97.4033 73.7422 96.9307 71.5547 96.9307 69.0234C96.9307 67.0781 97.2119 65.3437 97.7744 63.8203C98.3447 62.2891 99.1416 60.9922 100.165 59.9297C101.188 58.8672 102.38 58.0586 103.739 57.5039C105.099 56.9492 106.571 56.6719 108.157 56.6719C109.517 56.6719 110.782 56.8711 111.954 57.2695C113.126 57.6602 114.165 58.2148 115.071 58.9336C115.985 59.6523 116.731 60.5078 117.31 61.5C117.888 62.4844 118.259 63.5703 118.423 64.7578H113.267ZM122.457 81V57H138.629V61.1836H127.531V66.9023H137.797V71.0859H127.531V76.8164H138.676V81H122.457ZM142.663 57H148.921L155.53 73.125H155.812L162.421 57H168.679V81H163.757V65.3789H163.558L157.347 80.8828H153.995L147.784 65.3203H147.585V81H142.663V57ZM177.934 57V81H172.859V57H177.934Z" fill="black"/>
<path d="M63.014 81L46.946 41.7205H30.466V13.4666L3.89477 63.9172H0L33.7991 0L35.4471 4.03215L49.2381 37.7693H206L202.678 41.7205H50.8532L66.9102 81H63.014ZM45.3379 37.7693L37.0072 17.3958V37.7693H45.3379Z" fill="black"/>
</g>
</g>
<defs>
<clipPath id="clip0_101_11">
<rect width="206" height="81" fill="white"/>
</clipPath>
</defs>
</svg>
