<svg id="icon_Escavatore_mov._terra" data-name="icon Escavatore mov. terra" xmlns="http://www.w3.org/2000/svg" width="191.283" height="163.309" viewBox="0 0 191.283 163.309">
  <g id="Raggruppa_12" data-name="Raggruppa 12" transform="translate(0 0)">
    <g id="Raggruppa_11" data-name="Raggruppa 11">
      <path id="Tracciato_130" data-name="Tracciato 130" d="M188.452,108.875a13.675,13.675,0,0,0-15.276-4.626l-.174.06-9.345-46.953a3.044,3.044,0,0,0-.968-1.686L148.47,43.076a3.047,3.047,0,0,0-5.058,2.041l-1.089,13.791L70.651,97.93a3.046,3.046,0,0,0-1.59,2.676v22.14H55.915a3.047,3.047,0,0,0-3.018,2.63l-2.943,21.338H6.042a3.047,3.047,0,0,0-3.02,2.642L.027,171.7a3.047,3.047,0,0,0,3.02,3.452H36.968v2.031H21.531a14.218,14.218,0,0,0,0,28.437h91.81a14.218,14.218,0,0,0,0-28.437H72.311v-2.031H99.326a3.047,3.047,0,0,0,3.02-3.452l-6.207-46.312a3.047,3.047,0,0,0-3.02-2.642h-3.2l2.029-12.175,55-35.036L173,137.309l-2.621,3.82a3.047,3.047,0,1,0,5.024,3.448l13.473-19.633A13.652,13.652,0,0,0,188.452,108.875Zm-75.11,74.4a8.125,8.125,0,1,1,0,16.25H21.531a8.125,8.125,0,1,1,0-16.25Zm-70.279-6.094v-2.031H66.218v2.031ZM95.6,167.238l.244,1.818H6.53l2.178-16.249h43.9a3.047,3.047,0,0,0,3.018-2.63l2.943-21.338h2.773v17.413a16.181,16.181,0,0,0,12.471,15.793Zm-5.146-38.4,4.279,31.929-19.506-4.65a10.108,10.108,0,0,1-7.79-9.865V128.839H90.454ZM87.533,106.16a3.049,3.049,0,0,0-1.369,2.069l-2.42,14.516h-8.59v-20.33l68.3-37.184,1.411,4.41Zm77.788.765L151.36,69.949l-3.044-9.514.69-8.745,8.874,7.86,9.3,46.74ZM183.85,121.5l-6.884,10.031-9.209-18.993,7.384-2.517a7.591,7.591,0,0,1,8.708,11.48Z" transform="translate(0 -42.31)" fill="#354056"/>
      <path id="Tracciato_131" data-name="Tracciato 131" d="M58.51,488.021a3.046,3.046,0,1,0,1.223-3.416A3.076,3.076,0,0,0,58.51,488.021Z" transform="translate(-39.082 -338.052)" fill="#354056"/>
      <path id="Tracciato_132" data-name="Tracciato 132" d="M62.372,485.562Z" transform="translate(-41.72 -339.008)" fill="#354056"/>
      <path id="Tracciato_133" data-name="Tracciato 133" d="M331.414,488.334c.038.09.02.047,0,0a3.046,3.046,0,1,0,3.284-4.176,3.081,3.081,0,0,0-3.284,4.176C331.395,488.287,331.376,488.243,331.414,488.334Z" transform="translate(-221.699 -338.066)" fill="#354056"/>
      <path id="Tracciato_134" data-name="Tracciato 134" d="M89.067,490.178h71.9a3.047,3.047,0,1,0,0-6.093h-71.9a3.047,3.047,0,1,0,0,6.093Z" transform="translate(-57.583 -338.041)" fill="#90949d"/>
      <path id="Tracciato_135" data-name="Tracciato 135" d="M49.152,392.534H36.965a3.047,3.047,0,0,0,0,6.093H49.152a3.047,3.047,0,1,0,0-6.093Z" transform="translate(-22.705 -276.755)" fill="#90949d"/>
    </g>
  </g>
</svg>
