<?xml version="1.0" standalone="no"?>
<!DOCTYPE svg PUBLIC "-//W3C//DTD SVG 20010904//EN"
 "http://www.w3.org/TR/2001/REC-SVG-20010904/DTD/svg10.dtd">
<svg version="1.0" xmlns="http://www.w3.org/2000/svg"
 width="360.000000pt" height="360.000000pt" viewBox="0 0 360.000000 360.000000"
 preserveAspectRatio="xMidYMid meet">
<metadata>
Created by potrace 1.14, written by Peter Selinger 2001-2017
</metadata>
<g transform="translate(0.000000,360.000000) scale(0.100000,-0.100000)"
fill="#000000" stroke="none">
<path d="M350 3586 c-148 -42 -260 -141 -322 -287 l-23 -54 -2 -1420 c-3
-1499 -4 -1453 41 -1556 19 -44 75 -119 119 -159 41 -37 138 -86 199 -99 63
-14 2815 -15 2876 -1 98 23 173 71 267 172 24 26 66 115 81 172 21 77 20 2830
0 2898 -49 159 -155 272 -311 328 -34 13 -251 15 -1460 16 -1112 2 -1430 0
-1465 -10z"/>
</g>
</svg>
